<?xml version="1.0" encoding="utf-8"?>
<!-- Generator: Adobe Illustrator 23.0.0, SVG Export Plug-In . SVG Version: 6.00 Build 0)  -->
<svg version="1.1" id="图层_1" xmlns="http://www.w3.org/2000/svg" xmlns:xlink="http://www.w3.org/1999/xlink" x="0px" y="0px"
	 viewBox="0 0 300 300" style="enable-background:new 0 0 300 300;" xml:space="preserve">
<style type="text/css">
	.st0{fill:#FFFFFF;}
</style>
<g>
	<polygon class="st0" points="145.2,227.5 184,72.5 209.1,72.5 296.2,149.4 209,227.5 	"/>
	<path d="M208.1,75l84.4,74.4L208.1,225h-59.7l37.5-150H208.1 M210,70h-28l-40,160h68l90-80.6L210,70L210,70z"/>
</g>
<g>
	<g>
		<polygon class="st0" points="2.5,227.5 2.5,72.5 98.8,72.5 60,227.5 		"/>
		<path d="M95.6,75L58.1,225H5V75H95.6 M102,70H0v160h62L102,70L102,70z"/>
	</g>
	<g>
		<polygon class="st0" points="85.2,227.5 124,72.5 158.8,72.5 120,227.5 		"/>
		<path d="M155.6,75l-37.5,150H88.4l37.5-150H155.6 M162,70h-40L82,230h40L162,70L162,70z"/>
	</g>
</g>
</svg>
